<svg width="51" height="51" viewBox="0 0 51 51" fill="none" xmlns="http://www.w3.org/2000/svg">
<ellipse cx="25.6066" cy="25.2132" rx="17.5502" ry="18.1066" transform="rotate(45 25.6066 25.2132)" fill="#0500F9"/>
<ellipse cx="27.9334" cy="27.54" rx="14.2596" ry="14.7116" transform="rotate(45 27.9334 27.54)" fill="#FAFAFA"/>
<path d="M38.0165 37.6231C33.1551 42.4845 25.3944 42.6056 20.6824 37.8936C15.9704 33.1816 16.0915 25.4209 20.9529 20.5595C25.8142 15.6981 33.575 15.5771 38.287 20.289C42.9989 25.001 42.8779 32.7618 38.0165 37.6231Z" fill="#0500F9"/>
<ellipse cx="32.5872" cy="32.1938" rx="7.67823" ry="7.92164" transform="rotate(45 32.5872 32.1938)" fill="white"/>
<path d="M38.0165 37.6231C35.8068 39.8328 32.2792 39.8879 30.1374 37.7461C27.9956 35.6043 28.0506 32.0766 30.2603 29.8669C32.47 27.6572 35.9976 27.6022 38.1394 29.744C40.2813 31.8858 40.2262 35.4134 38.0165 37.6231Z" fill="#0500F9"/>
</svg>
