<svg width="51" height="51" viewBox="0 0 1132 1132" fill="none" xmlns="http://www.w3.org/2000/svg">
<circle cx="565.686" cy="565.685" r="400" transform="rotate(45 565.686 565.685)" fill="#6C757D"/>
<circle cx="618.719" cy="618.718" r="325" transform="rotate(45 618.719 618.718)" fill="#FAFAFA"/>
<path d="M848.528 848.528C741.134 955.922 567.014 955.922 459.619 848.528C352.225 741.134 352.225 567.014 459.619 459.619C567.014 352.225 741.134 352.225 848.528 459.619C955.922 567.014 955.922 741.134 848.528 848.528Z" fill="#6C757D"/>
<circle cx="724.785" cy="724.784" r="175" transform="rotate(45 724.785 724.784)" fill="white"/>
<path d="M848.528 848.528C799.713 897.344 720.567 897.344 671.752 848.528C622.936 799.713 622.936 720.567 671.752 671.751C720.567 622.936 799.713 622.936 848.528 671.751C897.344 720.567 897.344 799.713 848.528 848.528Z" fill="#6C757D"/>
</svg>
