<?xml version="1.0" standalone="no"?>
<!DOCTYPE svg PUBLIC "-//W3C//DTD SVG 20010904//EN"
 "http://www.w3.org/TR/2001/REC-SVG-20010904/DTD/svg10.dtd">
<svg version="1.0" xmlns="http://www.w3.org/2000/svg"
 width="810.000000pt" height="810.000000pt" viewBox="0 0 810.000000 810.000000"
 preserveAspectRatio="xMidYMid meet">
<metadata>
Created by potrace 1.14, written by Peter Selinger 2001-2017
</metadata>
<g transform="translate(0.000000,810.000000) scale(0.100000,-0.100000)"
fill="#000000" stroke="none">
<path d="M3860 8019 c-745 -30 -1512 -292 -2115 -722 -265 -189 -578 -476
-760 -697 -472 -571 -764 -1202 -884 -1910 -70 -414 -70 -918 0 -1335 91 -543
307 -1087 612 -1545 165 -246 320 -432 548 -655 1276 -1248 3229 -1492 4784
-599 143 82 400 256 400 271 0 6 4 15 9 20 5 5 6 3 2 -4 -4 -7 -3 -13 2 -13
15 0 33 26 24 35 -4 5 -1 5 6 1 23 -14 352 281 518 464 113 124 174 202 168
212 -4 6 -3 8 3 5 15 -9 36 19 27 35 -4 7 -4 10 1 6 4 -4 14 -3 22 3 16 14 18
33 1 23 -7 -4 -8 -3 -4 5 4 6 11 9 16 6 5 -3 41 41 81 97 274 386 496 872 609
1333 84 343 114 598 114 970 0 388 -32 648 -124 1003 -185 712 -545 1331
-1077 1852 -369 362 -764 627 -1238 830 -404 174 -919 291 -1335 306 -80 2
-165 6 -190 7 -25 2 -124 0 -220 -4z m987 -1290 c575 -48 1137 -252 1603 -583
555 -393 978 -956 1196 -1591 121 -350 176 -687 176 -1070 -1 -623 -167 -1198
-499 -1727 -30 -49 -57 -88 -59 -88 -3 0 7 19 21 43 188 308 314 665 373 1050
22 144 24 596 4 732 -51 336 -136 607 -282 895 -373 734 -1075 1274 -1877
1441 -330 69 -694 77 -1023 23 -556 -91 -1073 -356 -1479 -757 -473 -467 -753
-1062 -812 -1728 -22 -248 2 -600 56 -834 161 -693 572 -1291 1159 -1684 340
-228 712 -370 1146 -438 163 -25 607 -25 765 0 348 56 669 163 945 317 52 29
106 60 120 70 39 26 58 34 30 12 -52 -43 -232 -150 -365 -217 -1077 -545
-2375 -446 -3355 255 -447 320 -823 769 -1049 1252 -153 327 -239 628 -293
1028 -19 144 -16 603 5 763 64 475 212 897 452 1292 131 215 263 384 454 578
274 280 524 462 871 636 381 190 767 296 1215 334 96 8 385 6 502 -4z m1078
-2573 c502 -92 905 -356 1178 -771 328 -499 373 -1152 116 -1695 -46 -97 -135
-250 -145 -250 -2 0 14 36 36 80 89 177 130 354 130 559 0 340 -126 644 -368
885 -173 174 -385 289 -632 342 -107 23 -370 26 -475 5 -112 -22 -239 -67
-348 -123 -576 -296 -828 -982 -583 -1585 113 -275 329 -509 597 -643 178 -89
357 -130 564 -130 201 0 379 42 555 130 44 22 80 38 80 36 0 -10 -138 -91
-240 -140 -547 -262 -1198 -219 -1705 111 -367 240 -633 610 -739 1028 -158
623 27 1264 492 1706 274 261 615 420 1002 468 102 13 387 6 485 -13z"/>
</g>
</svg>
